<?xml version="1.0" encoding="utf-8"?>
<svg version="1.1" xmlns="http://www.w3.org/2000/svg" xmlns:xlink="http://www.w3.org/1999/xlink" viewBox="0, 0, 400,400"> <g > <path d="M197.536 82.300 C 196.259 84.112,194.928 86.124,192.971 89.200 C 192.481 89.970,191.947 91.047,191.784 91.592 C 191.621 92.138,191.163 93.038,190.766 93.592 C 188.922 96.171,189.220 106.000,191.143 106.000 C 191.316 106.000,191.917 106.701,192.478 107.558 L 193.498 109.116 191.049 110.713 C 187.335 113.134,186.967 113.283,186.393 112.592 C 186.123 112.266,185.685 112.000,185.421 112.000 C 185.156 112.000,184.531 111.565,184.032 111.034 C 183.533 110.502,182.646 109.948,182.062 109.803 C 181.478 109.657,180.730 109.299,180.400 109.007 C 176.333 105.407,161.610 105.406,154.400 109.005 C 153.850 109.279,152.770 109.638,152.000 109.802 C 151.230 109.965,150.139 110.425,149.576 110.823 C 149.012 111.221,148.022 111.672,147.376 111.826 C 146.729 111.980,145.390 112.529,144.400 113.047 C 135.260 117.830,132.086 118.670,129.836 116.900 C 127.959 115.423,123.306 115.596,120.588 117.243 C 113.615 121.469,115.058 131.159,123.143 134.395 L 124.486 134.933 123.475 135.462 C 122.879 135.775,122.267 136.608,121.983 137.496 C 121.718 138.323,121.183 139.360,120.794 139.800 C 120.405 140.240,119.953 141.227,119.791 141.994 C 119.628 142.761,119.261 143.751,118.976 144.194 C 118.690 144.637,117.805 146.530,117.009 148.400 C 116.214 150.270,115.324 152.250,115.033 152.800 C 114.742 153.350,114.274 154.520,113.993 155.400 C 113.713 156.280,113.150 157.429,112.742 157.954 C 112.334 158.479,112.000 159.165,112.000 159.479 C 112.000 159.793,111.447 161.254,110.772 162.725 C 110.096 164.196,109.219 166.120,108.822 167.000 C 108.425 167.880,107.646 169.590,107.091 170.800 C 106.536 172.010,105.948 173.450,105.786 174.000 C 105.623 174.550,105.155 175.429,104.745 175.954 C 104.335 176.479,104.000 177.262,104.000 177.695 C 104.000 178.128,103.554 179.319,103.009 180.341 C 102.464 181.363,101.464 183.550,100.787 185.200 C 100.110 186.850,99.227 188.830,98.826 189.600 C 98.426 190.370,97.896 191.631,97.650 192.403 C 96.742 195.249,95.569 196.000,92.033 196.000 C 88.069 196.000,86.580 197.991,89.026 200.021 C 89.342 200.283,89.600 200.715,89.600 200.980 C 89.600 201.710,91.860 205.039,94.669 208.447 C 103.354 218.983,116.522 224.131,130.271 222.366 C 137.141 221.484,140.041 220.455,147.981 216.078 C 149.663 215.151,158.000 207.342,158.000 206.694 C 158.000 206.503,158.433 205.774,158.963 205.073 C 159.493 204.373,160.739 202.215,161.732 200.278 L 163.538 196.757 162.543 196.378 C 161.996 196.170,160.401 196.000,159.000 196.000 C 155.886 196.000,154.554 195.535,154.196 194.323 C 154.046 193.815,153.384 192.230,152.724 190.800 C 152.065 189.370,151.285 187.660,150.991 187.000 C 150.696 186.340,149.903 184.596,149.228 183.125 C 148.553 181.654,148.000 180.193,148.000 179.879 C 148.000 179.565,147.651 178.864,147.225 178.322 C 146.798 177.780,146.325 176.811,146.173 176.168 C 146.021 175.526,145.572 174.370,145.175 173.600 C 144.779 172.830,143.800 170.670,143.000 168.800 C 142.200 166.930,141.198 164.745,140.773 163.946 C 140.348 163.146,140.000 162.225,140.000 161.899 C 140.000 161.574,139.651 160.864,139.225 160.322 C 138.798 159.780,138.324 158.811,138.171 158.168 C 138.018 157.526,137.361 155.830,136.712 154.400 C 136.062 152.970,135.204 151.080,134.806 150.200 C 134.407 149.320,133.613 147.593,133.041 146.361 C 132.468 145.130,132.000 143.898,132.000 143.623 C 132.000 143.348,131.652 142.635,131.227 142.037 C 130.801 141.440,130.321 140.426,130.160 139.784 C 129.999 139.142,129.249 137.757,128.494 136.705 L 127.120 134.793 128.660 134.160 C 130.438 133.430,132.488 131.611,133.801 129.600 C 134.361 128.743,135.546 127.792,136.858 127.147 C 144.218 123.531,147.529 122.001,148.471 121.780 C 149.059 121.641,149.852 121.184,150.233 120.764 C 150.613 120.344,151.308 120.000,151.777 120.000 C 152.247 120.000,153.317 119.650,154.156 119.222 C 157.908 117.310,163.138 116.200,168.400 116.200 L 173.400 116.200 176.574 117.761 C 181.788 120.325,182.947 121.830,183.587 126.865 C 184.176 131.503,185.158 133.695,188.036 136.800 C 190.510 139.469,190.400 136.202,190.400 206.847 C 190.400 278.344,190.488 275.037,188.567 275.840 C 187.358 276.345,185.771 277.312,183.208 279.106 C 181.090 280.589,178.907 282.841,177.426 285.072 C 176.576 286.352,175.551 287.883,175.148 288.473 C 174.745 289.064,174.222 290.414,173.985 291.473 C 173.749 292.533,173.286 293.813,172.957 294.318 C 172.628 294.823,172.253 296.126,172.124 297.215 C 171.794 300.000,172.051 299.935,160.790 300.074 L 150.600 300.200 148.633 301.413 C 145.180 303.544,144.042 306.235,144.019 312.326 C 144.009 315.036,144.186 317.601,144.414 318.026 C 144.922 318.975,252.124 319.273,254.191 318.331 C 257.834 316.672,255.499 304.165,251.033 301.412 L 249.065 300.200 239.049 300.080 C 228.315 299.951,228.227 299.933,227.825 297.791 C 227.682 297.032,227.217 295.644,226.792 294.706 C 226.366 293.767,226.013 292.550,226.008 292.000 C 226.004 291.450,225.097 289.470,223.994 287.600 C 222.220 284.594,220.787 282.972,216.273 278.862 C 215.874 278.498,214.344 277.554,212.873 276.765 C 211.403 275.976,209.977 274.896,209.704 274.365 C 209.314 273.606,209.228 259.064,209.304 206.314 L 209.400 139.228 211.443 137.114 C 214.783 133.658,215.955 131.161,216.261 126.841 C 216.459 124.057,216.706 122.970,217.296 122.291 C 217.722 121.801,218.189 121.214,218.335 120.986 C 218.701 120.415,222.188 118.274,224.600 117.140 C 228.874 115.131,239.947 116.216,245.844 119.222 C 246.683 119.650,247.710 120.000,248.127 120.000 C 248.544 120.000,249.419 120.450,250.073 121.000 C 250.727 121.550,251.538 122.000,251.876 122.000 C 252.462 122.000,258.501 124.779,263.200 127.211 C 264.596 127.934,265.692 128.850,266.200 129.720 C 267.225 131.475,269.378 133.330,271.340 134.150 L 272.880 134.793 271.506 136.705 C 270.751 137.757,270.002 139.139,269.841 139.777 C 269.681 140.415,269.202 141.380,268.775 141.922 C 268.349 142.464,268.000 143.165,268.000 143.479 C 268.000 143.793,267.441 145.254,266.758 146.725 C 266.076 148.196,265.278 149.940,264.986 150.600 C 264.695 151.260,263.903 153.004,263.228 154.475 C 262.553 155.946,262.000 157.396,262.000 157.697 C 262.000 157.998,261.550 158.855,261.000 159.600 C 260.450 160.345,260.000 161.224,260.000 161.551 C 260.000 161.879,259.660 162.879,259.245 163.774 C 258.830 164.668,257.467 167.740,256.217 170.600 C 254.968 173.460,253.509 176.700,252.976 177.800 C 252.443 178.900,251.898 180.288,251.764 180.884 C 251.631 181.480,251.269 182.177,250.961 182.433 C 250.652 182.689,250.400 183.078,250.400 183.299 C 250.400 183.711,247.964 189.420,247.029 191.200 C 246.740 191.750,246.282 192.886,246.012 193.725 C 245.417 195.575,244.480 196.000,241.000 196.000 C 239.599 196.000,237.991 196.175,237.427 196.390 L 236.402 196.779 237.226 198.490 C 240.245 204.757,242.024 207.306,246.234 211.400 C 251.150 216.180,254.765 218.413,261.200 220.648 C 263.919 221.592,274.595 223.331,275.276 222.940 C 275.428 222.853,277.704 222.531,280.333 222.224 C 282.962 221.917,285.664 221.381,286.337 221.033 C 287.010 220.685,287.795 220.400,288.082 220.400 C 288.558 220.400,294.004 217.964,295.040 217.287 C 295.282 217.129,296.272 216.482,297.240 215.848 C 301.839 212.837,308.219 205.410,310.976 199.856 C 312.587 196.611,312.298 196.256,307.835 196.000 C 304.043 195.782,303.433 195.402,302.374 192.600 C 301.919 191.395,300.585 188.381,299.186 185.400 C 298.773 184.520,298.238 183.139,297.997 182.332 C 297.756 181.525,297.310 180.657,297.005 180.404 C 296.701 180.152,296.330 179.372,296.182 178.672 C 296.034 177.973,295.585 176.770,295.183 176.000 C 294.782 175.230,293.798 173.070,292.996 171.200 C 291.424 167.533,291.099 166.801,289.228 162.725 C 288.553 161.254,288.000 159.793,288.000 159.479 C 288.000 159.165,287.665 158.479,287.255 157.954 C 286.845 157.429,286.377 156.550,286.214 156.000 C 286.052 155.450,285.464 154.010,284.909 152.800 C 284.354 151.590,283.576 149.880,283.181 149.000 C 282.786 148.120,282.017 146.410,281.474 145.200 C 280.931 143.990,280.277 142.339,280.023 141.532 C 279.768 140.725,279.310 139.857,279.005 139.604 C 278.701 139.352,278.334 138.611,278.191 137.959 C 278.048 137.306,277.400 136.380,276.752 135.901 L 275.573 135.030 277.124 134.215 C 284.983 130.086,285.637 121.181,278.400 116.842 C 276.278 115.570,272.225 115.665,269.577 117.050 C 267.035 118.379,266.003 118.229,261.174 115.830 C 259.148 114.823,257.288 114.000,257.039 114.000 C 256.789 114.000,255.959 113.574,255.193 113.054 C 254.427 112.533,253.170 111.973,252.400 111.809 C 251.630 111.645,250.717 111.262,250.372 110.959 C 249.014 109.765,239.706 106.980,235.000 106.360 C 227.964 105.433,221.348 107.221,214.711 111.844 C 212.679 113.260,212.551 113.232,208.540 110.517 L 206.480 109.122 207.668 107.361 C 208.322 106.392,209.017 105.600,209.213 105.600 C 210.675 105.600,210.751 95.469,209.301 93.884 C 208.856 93.398,208.363 92.550,208.206 92.000 C 207.917 90.990,207.392 90.105,204.561 85.860 C 203.702 84.573,202.688 83.043,202.306 82.460 C 200.591 79.842,199.299 79.799,197.536 82.300 M127.835 155.200 C 128.214 156.190,128.836 157.403,129.217 157.897 C 129.598 158.390,130.025 159.407,130.165 160.156 C 130.306 160.906,130.686 161.740,131.011 162.009 C 131.335 162.278,131.600 162.704,131.600 162.955 C 131.600 163.206,132.119 164.489,132.754 165.806 C 134.954 170.368,136.000 172.679,136.000 172.977 C 136.000 173.142,136.341 173.756,136.759 174.342 C 137.176 174.928,137.717 176.150,137.962 177.057 C 138.206 177.964,138.673 178.929,139.000 179.200 C 139.327 179.471,139.793 180.431,140.036 181.333 C 140.278 182.234,140.820 183.407,141.239 183.940 C 141.657 184.472,142.000 185.174,142.000 185.499 C 142.000 185.825,142.345 186.746,142.766 187.546 C 145.171 192.111,146.111 194.535,145.718 195.158 C 145.277 195.856,106.711 196.172,105.046 195.492 C 104.365 195.214,104.351 195.115,104.898 194.492 C 105.232 194.111,105.638 193.350,105.801 192.800 C 106.127 191.696,108.049 187.415,109.238 185.146 C 109.657 184.346,110.000 183.425,110.000 183.099 C 110.000 182.774,110.349 182.064,110.775 181.522 C 111.202 180.980,111.675 180.011,111.828 179.368 C 111.980 178.726,112.529 177.390,113.046 176.400 C 114.794 173.056,118.000 165.956,118.000 165.430 C 118.000 165.143,118.335 164.479,118.745 163.954 C 119.155 163.429,119.617 162.550,119.772 162.000 C 120.079 160.910,121.766 157.221,123.738 153.329 L 124.989 150.857 126.067 152.129 C 126.660 152.828,127.456 154.210,127.835 155.200 M275.842 153.100 C 276.231 154.145,276.876 155.429,277.275 155.954 C 277.674 156.479,278.000 157.299,278.000 157.776 C 278.000 158.254,278.450 159.255,279.000 160.000 C 279.550 160.745,280.001 161.635,280.002 161.978 C 280.004 162.320,280.290 163.140,280.638 163.800 C 281.637 165.696,286.400 176.263,286.400 176.584 C 286.400 176.743,286.760 177.331,287.200 177.891 C 287.640 178.450,288.000 179.309,288.000 179.800 C 288.000 180.291,288.335 181.121,288.745 181.646 C 289.155 182.171,289.629 183.050,289.799 183.600 C 289.970 184.150,290.887 186.220,291.838 188.200 C 294.465 193.669,294.841 194.982,293.940 195.545 C 292.758 196.283,255.048 196.181,254.432 195.438 C 253.909 194.809,254.221 192.944,255.006 192.000 C 255.281 191.670,255.643 190.950,255.811 190.401 C 255.979 189.851,256.980 187.586,258.034 185.367 C 259.089 183.147,260.070 180.859,260.215 180.282 C 260.360 179.705,260.730 179.024,261.036 178.770 C 261.343 178.515,261.793 177.569,262.036 176.667 C 262.278 175.766,262.820 174.593,263.239 174.060 C 263.657 173.528,264.000 172.832,264.000 172.514 C 264.000 172.196,264.900 170.075,266.000 167.800 C 267.100 165.525,268.000 163.452,268.000 163.194 C 268.000 162.935,268.335 162.246,268.744 161.662 C 269.153 161.078,269.793 159.669,270.166 158.531 C 270.539 157.393,271.099 156.250,271.411 155.991 C 271.723 155.732,272.093 154.913,272.232 154.172 C 272.434 153.094,274.150 151.299,275.067 151.207 C 275.104 151.203,275.452 152.055,275.842 153.100 " stroke="none" fill="#FFFF00"></path> <path d="M182.358 21.823 C 179.875 22.588,178.482 24.594,177.982 28.122 C 177.195 33.680,172.468 37.391,168.400 35.643 C 165.487 34.392,164.212 33.324,163.861 31.841 C 161.726 22.810,148.130 25.457,149.106 34.714 C 149.535 38.787,145.683 43.594,141.984 43.601 C 140.844 43.603,136.415 41.477,136.209 40.829 C 136.094 40.466,135.093 39.277,133.985 38.185 L 131.969 36.200 128.851 36.200 C 125.875 36.200,125.662 36.262,124.167 37.566 C 122.066 39.397,122.060 39.418,122.028 45.622 L 122.000 51.044 120.648 52.520 C 116.831 56.687,113.585 56.533,107.820 51.909 C 104.160 48.973,101.909 49.081,98.409 52.360 L 95.890 54.721 96.080 57.660 C 96.188 59.321,96.575 61.185,96.969 61.945 C 100.062 67.905,91.803 74.831,86.200 70.974 C 85.540 70.520,84.382 69.725,83.626 69.207 C 77.987 65.347,70.719 73.292,74.180 79.533 C 76.628 83.948,76.695 87.415,74.381 89.845 C 71.737 92.622,69.207 93.022,64.600 91.393 C 56.264 88.446,50.369 96.474,55.963 103.155 C 61.607 109.897,57.250 117.306,48.436 115.957 C 38.767 114.477,34.774 122.306,41.784 129.000 C 48.381 135.299,45.198 142.730,35.880 142.782 C 26.981 142.833,24.359 151.786,31.776 156.800 C 35.908 159.594,36.708 161.101,36.229 165.189 C 35.740 169.356,32.029 171.635,25.159 171.988 C 24.627 172.015,22.340 174.505,21.982 175.446 C 20.272 179.945,22.488 184.445,27.202 186.049 C 31.183 187.404,33.204 190.875,32.345 194.880 C 31.799 197.430,29.623 200.000,28.013 200.000 C 25.323 200.000,21.038 203.231,20.352 205.777 C 19.147 210.254,22.036 214.646,26.688 215.407 C 30.117 215.968,30.573 216.147,31.866 217.439 C 35.811 221.385,34.577 227.046,29.185 229.733 C 22.733 232.948,21.933 238.154,27.057 243.580 C 27.150 243.679,28.976 243.871,31.114 244.007 C 37.476 244.410,39.800 246.507,39.800 251.844 L 39.800 255.108 35.900 258.932 C 31.150 263.590,30.835 264.850,33.463 268.666 C 35.746 271.980,36.187 272.160,42.068 272.182 C 47.793 272.202,47.978 272.286,50.491 276.000 C 52.591 279.104,52.273 280.255,47.701 286.099 C 42.199 293.133,47.098 299.578,56.588 297.792 C 62.044 296.765,64.411 297.773,66.258 301.911 C 67.299 304.245,67.387 304.878,66.810 305.905 C 66.596 306.287,66.139 307.230,65.796 308.000 C 65.452 308.770,64.642 310.300,63.995 311.400 C 60.242 317.782,67.345 324.528,74.090 320.987 C 78.338 318.756,81.592 318.936,84.403 321.557 L 86.000 323.047 86.000 326.646 C 86.000 329.856,85.892 330.391,85.000 331.600 C 80.000 338.377,90.289 345.638,97.030 340.089 C 103.404 334.841,112.121 340.793,109.000 348.262 C 105.868 355.758,115.446 362.191,121.027 356.339 C 124.073 353.146,125.091 352.600,128.000 352.600 C 133.026 352.600,135.374 355.318,135.432 361.200 C 135.487 366.715,135.475 366.659,136.985 368.331 C 140.442 372.157,145.711 371.532,148.779 366.931 C 153.988 359.118,162.653 361.434,163.627 370.899 C 164.054 375.048,164.127 375.207,166.308 376.669 C 168.119 377.883,169.225 378.136,172.299 378.041 C 174.042 377.986,176.655 375.605,177.830 373.000 C 181.143 365.653,191.223 365.617,192.216 372.949 C 192.911 378.074,195.266 380.120,200.258 379.935 C 205.043 379.758,207.109 377.821,207.790 372.871 C 208.789 365.609,218.760 365.699,222.167 373.000 C 224.576 378.164,229.650 379.738,233.765 376.600 C 235.729 375.101,235.949 374.600,236.350 370.719 C 237.313 361.393,245.983 359.167,251.122 366.927 C 253.367 370.318,256.374 371.509,259.870 370.393 C 263.515 369.230,264.954 366.508,264.545 361.551 C 263.827 352.845,271.459 349.427,278.031 355.511 L 280.935 358.200 284.037 358.200 C 289.772 358.200,293.105 353.576,291.000 348.538 C 287.815 340.915,296.514 334.774,302.970 340.089 C 309.666 345.601,319.967 338.332,315.000 331.600 C 314.108 330.391,314.000 329.856,314.000 326.646 L 314.000 323.047 315.597 321.557 C 318.405 318.939,321.911 318.742,325.743 320.988 C 329.822 323.378,334.487 321.756,336.444 317.267 C 337.587 314.645,337.355 313.575,334.611 308.800 C 332.562 305.235,332.474 304.516,333.754 301.768 C 335.373 298.291,338.537 296.643,341.879 297.537 C 347.302 298.987,350.874 298.491,352.564 296.052 C 355.125 292.357,354.936 289.089,351.976 285.850 C 350.889 284.661,350.000 283.561,350.000 283.406 C 350.000 283.250,349.615 282.583,349.145 281.923 C 347.437 279.525,348.299 276.563,351.634 273.368 C 352.847 272.205,352.874 272.200,357.970 272.177 C 363.720 272.150,364.205 271.949,366.594 268.600 C 369.049 265.160,367.765 261.166,363.221 258.102 C 360.754 256.440,360.000 254.980,360.000 251.870 C 360.000 246.669,362.573 244.390,368.886 244.000 C 371.024 243.868,372.850 243.679,372.943 243.580 C 377.868 238.364,377.216 232.902,371.335 230.117 C 370.176 229.568,368.483 228.312,367.573 227.324 L 365.918 225.529 366.060 222.409 C 366.264 217.918,368.048 216.145,373.080 215.434 C 377.880 214.756,380.878 210.348,379.648 205.777 C 378.966 203.247,374.680 200.000,372.022 200.000 C 370.470 200.000,368.220 197.472,367.642 195.081 C 367.200 193.248,367.280 192.455,368.243 189.125 C 368.476 188.319,371.858 186.000,372.800 186.000 C 377.387 186.000,380.235 177.773,376.990 173.893 C 375.521 172.136,375.314 172.046,371.722 171.590 C 361.830 170.336,360.453 160.593,369.510 155.931 C 372.603 154.339,373.291 148.298,370.714 145.363 C 368.887 143.282,367.660 142.802,364.120 142.782 C 354.849 142.730,351.442 134.812,358.190 129.000 C 365.456 122.742,360.943 114.357,351.194 116.001 C 342.990 117.385,338.524 109.929,343.712 103.510 C 347.484 98.844,346.714 93.697,341.884 91.285 C 339.638 90.163,338.842 90.177,335.400 91.393 C 326.518 94.533,321.270 88.584,325.454 80.117 C 327.785 75.399,327.111 72.551,322.971 69.639 C 320.602 67.973,318.428 67.804,316.474 69.133 C 315.773 69.610,314.615 70.399,313.900 70.887 C 308.053 74.875,299.291 67.515,303.053 61.776 C 303.624 60.905,303.800 59.888,303.800 57.467 L 303.800 54.299 301.400 52.150 C 298.087 49.184,295.623 49.061,292.389 51.700 C 286.480 56.522,283.207 56.728,279.352 52.520 L 278.000 51.044 277.972 45.622 C 277.940 39.418,277.934 39.397,275.833 37.566 C 274.332 36.257,274.134 36.200,271.079 36.200 L 267.892 36.200 265.246 39.047 C 261.039 43.573,258.917 44.270,255.013 42.406 C 252.043 40.989,250.813 38.792,250.782 34.847 C 250.736 28.844,246.976 25.203,241.823 26.169 C 240.055 26.501,236.562 29.865,236.088 31.691 C 235.863 32.559,235.131 33.413,233.779 34.381 C 228.756 37.982,222.831 34.901,222.007 28.260 C 221.451 23.775,218.672 21.200,214.387 21.200 C 211.765 21.200,208.000 23.748,208.000 25.522 C 208.001 28.716,203.164 33.600,200.000 33.600 C 196.849 33.600,192.852 29.815,192.171 26.187 C 191.442 22.299,187.092 20.365,182.358 21.823 M200.929 80.900 C 201.304 81.175,201.924 81.877,202.306 82.460 C 202.688 83.043,203.702 84.573,204.561 85.860 C 207.392 90.105,207.917 90.990,208.206 92.000 C 208.363 92.550,208.856 93.398,209.301 93.884 C 210.751 95.469,210.675 105.600,209.213 105.600 C 209.017 105.600,208.322 106.392,207.668 107.361 L 206.480 109.122 208.540 110.517 C 212.551 113.232,212.679 113.260,214.711 111.844 C 221.348 107.221,227.964 105.433,235.000 106.360 C 239.706 106.980,249.014 109.765,250.372 110.959 C 250.717 111.262,251.630 111.645,252.400 111.809 C 253.170 111.973,254.427 112.533,255.193 113.054 C 255.959 113.574,256.789 114.000,257.039 114.000 C 257.288 114.000,259.148 114.823,261.174 115.830 C 266.003 118.229,267.035 118.379,269.577 117.050 C 272.225 115.665,276.278 115.570,278.400 116.842 C 285.637 121.181,284.983 130.086,277.124 134.215 L 275.573 135.030 276.752 135.901 C 277.400 136.380,278.048 137.306,278.191 137.959 C 278.334 138.611,278.701 139.352,279.005 139.604 C 279.310 139.857,279.768 140.725,280.023 141.532 C 280.277 142.339,280.931 143.990,281.474 145.200 C 282.017 146.410,282.786 148.120,283.181 149.000 C 283.576 149.880,284.354 151.590,284.909 152.800 C 285.464 154.010,286.052 155.450,286.214 156.000 C 286.377 156.550,286.845 157.429,287.255 157.954 C 287.665 158.479,288.000 159.165,288.000 159.479 C 288.000 159.793,288.553 161.254,289.228 162.725 C 291.099 166.801,291.424 167.533,292.996 171.200 C 293.798 173.070,294.782 175.230,295.183 176.000 C 295.585 176.770,296.034 177.973,296.182 178.672 C 296.330 179.372,296.701 180.152,297.005 180.404 C 297.310 180.657,297.756 181.525,297.997 182.332 C 298.238 183.139,298.773 184.520,299.186 185.400 C 300.585 188.381,301.919 191.395,302.374 192.600 C 303.433 195.402,304.043 195.782,307.835 196.000 C 312.298 196.256,312.587 196.611,310.976 199.856 C 308.219 205.410,301.839 212.837,297.240 215.848 C 296.272 216.482,295.282 217.129,295.040 217.287 C 294.004 217.964,288.558 220.400,288.082 220.400 C 287.795 220.400,287.010 220.685,286.337 221.033 C 285.664 221.381,282.962 221.917,280.333 222.224 C 277.704 222.531,275.428 222.853,275.276 222.940 C 274.595 223.331,263.919 221.592,261.200 220.648 C 254.765 218.413,251.150 216.180,246.234 211.400 C 242.024 207.306,240.245 204.757,237.226 198.490 L 236.402 196.779 237.427 196.390 C 237.991 196.175,239.599 196.000,241.000 196.000 C 244.480 196.000,245.417 195.575,246.012 193.725 C 246.282 192.886,246.740 191.750,247.029 191.200 C 247.964 189.420,250.400 183.711,250.400 183.299 C 250.400 183.078,250.652 182.689,250.961 182.433 C 251.269 182.177,251.631 181.480,251.764 180.884 C 251.898 180.288,252.443 178.900,252.976 177.800 C 253.509 176.700,254.968 173.460,256.217 170.600 C 257.467 167.740,258.830 164.668,259.245 163.774 C 259.660 162.879,260.000 161.879,260.000 161.551 C 260.000 161.224,260.450 160.345,261.000 159.600 C 261.550 158.855,262.000 157.998,262.000 157.697 C 262.000 157.396,262.553 155.946,263.228 154.475 C 263.903 153.004,264.695 151.260,264.986 150.600 C 265.278 149.940,266.076 148.196,266.758 146.725 C 267.441 145.254,268.000 143.793,268.000 143.479 C 268.000 143.165,268.349 142.464,268.775 141.922 C 269.202 141.380,269.681 140.415,269.841 139.777 C 270.002 139.139,270.751 137.757,271.506 136.705 L 272.880 134.793 271.340 134.150 C 269.378 133.330,267.225 131.475,266.200 129.720 C 265.692 128.850,264.596 127.934,263.200 127.211 C 258.501 124.779,252.462 122.000,251.876 122.000 C 251.538 122.000,250.727 121.550,250.073 121.000 C 249.419 120.450,248.544 120.000,248.127 120.000 C 247.710 120.000,246.683 119.650,245.844 119.222 C 239.947 116.216,228.874 115.131,224.600 117.140 C 222.188 118.274,218.701 120.415,218.335 120.986 C 218.189 121.214,217.722 121.801,217.296 122.291 C 216.706 122.970,216.459 124.057,216.261 126.841 C 215.955 131.161,214.783 133.658,211.443 137.114 L 209.400 139.228 209.304 206.314 C 209.228 259.064,209.314 273.606,209.704 274.365 C 209.977 274.896,211.403 275.976,212.873 276.765 C 214.344 277.554,215.874 278.498,216.273 278.862 C 220.787 282.972,222.220 284.594,223.994 287.600 C 225.097 289.470,226.004 291.450,226.008 292.000 C 226.013 292.550,226.366 293.767,226.792 294.706 C 227.217 295.644,227.682 297.032,227.825 297.791 C 228.227 299.933,228.315 299.951,239.049 300.080 L 249.065 300.200 251.033 301.412 C 255.499 304.165,257.834 316.672,254.191 318.331 C 252.124 319.273,144.922 318.975,144.414 318.026 C 144.186 317.601,144.009 315.036,144.019 312.326 C 144.042 306.235,145.180 303.544,148.633 301.413 L 150.600 300.200 160.790 300.074 C 172.051 299.935,171.794 300.000,172.124 297.215 C 172.253 296.126,172.628 294.823,172.957 294.318 C 173.286 293.813,173.749 292.533,173.985 291.473 C 174.222 290.414,174.745 289.064,175.148 288.473 C 175.551 287.883,176.576 286.352,177.426 285.072 C 178.907 282.841,181.090 280.589,183.208 279.106 C 185.771 277.312,187.358 276.345,188.567 275.840 C 190.488 275.037,190.400 278.344,190.400 206.847 C 190.400 136.202,190.510 139.469,188.036 136.800 C 185.158 133.695,184.176 131.503,183.587 126.865 C 182.947 121.830,181.788 120.325,176.574 117.761 L 173.400 116.200 168.400 116.200 C 163.138 116.200,157.908 117.310,154.156 119.222 C 153.317 119.650,152.247 120.000,151.777 120.000 C 151.308 120.000,150.613 120.344,150.233 120.764 C 149.852 121.184,149.059 121.641,148.471 121.780 C 147.529 122.001,144.218 123.531,136.858 127.147 C 135.546 127.792,134.361 128.743,133.801 129.600 C 132.488 131.611,130.438 133.430,128.660 134.160 L 127.120 134.793 128.494 136.705 C 129.249 137.757,129.999 139.142,130.160 139.784 C 130.321 140.426,130.801 141.440,131.227 142.037 C 131.652 142.635,132.000 143.348,132.000 143.623 C 132.000 143.898,132.468 145.130,133.041 146.361 C 133.613 147.593,134.407 149.320,134.806 150.200 C 135.204 151.080,136.062 152.970,136.712 154.400 C 137.361 155.830,138.018 157.526,138.171 158.168 C 138.324 158.811,138.798 159.780,139.225 160.322 C 139.651 160.864,140.000 161.574,140.000 161.899 C 140.000 162.225,140.348 163.146,140.773 163.946 C 141.198 164.745,142.200 166.930,143.000 168.800 C 143.800 170.670,144.779 172.830,145.175 173.600 C 145.572 174.370,146.021 175.526,146.173 176.168 C 146.325 176.811,146.798 177.780,147.225 178.322 C 147.651 178.864,148.000 179.565,148.000 179.879 C 148.000 180.193,148.553 181.654,149.228 183.125 C 149.903 184.596,150.696 186.340,150.991 187.000 C 151.285 187.660,152.065 189.370,152.724 190.800 C 153.384 192.230,154.046 193.815,154.196 194.323 C 154.554 195.535,155.886 196.000,159.000 196.000 C 160.401 196.000,161.996 196.170,162.543 196.378 L 163.538 196.757 161.732 200.278 C 160.739 202.215,159.493 204.373,158.963 205.073 C 158.433 205.774,158.000 206.503,158.000 206.694 C 158.000 207.342,149.663 215.151,147.981 216.078 C 140.041 220.455,137.141 221.484,130.271 222.366 C 116.522 224.131,103.354 218.983,94.669 208.447 C 91.860 205.039,89.600 201.710,89.600 200.980 C 89.600 200.715,89.342 200.283,89.026 200.021 C 86.580 197.991,88.069 196.000,92.033 196.000 C 95.569 196.000,96.742 195.249,97.650 192.403 C 97.896 191.631,98.426 190.370,98.826 189.600 C 99.227 188.830,100.110 186.850,100.787 185.200 C 101.464 183.550,102.464 181.363,103.009 180.341 C 103.554 179.319,104.000 178.128,104.000 177.695 C 104.000 177.262,104.335 176.479,104.745 175.954 C 105.155 175.429,105.623 174.550,105.786 174.000 C 105.948 173.450,106.536 172.010,107.091 170.800 C 107.646 169.590,108.425 167.880,108.822 167.000 C 109.219 166.120,110.096 164.196,110.772 162.725 C 111.447 161.254,112.000 159.793,112.000 159.479 C 112.000 159.165,112.334 158.479,112.742 157.954 C 113.150 157.429,113.713 156.280,113.993 155.400 C 114.274 154.520,114.742 153.350,115.033 152.800 C 115.324 152.250,116.214 150.270,117.009 148.400 C 117.805 146.530,118.690 144.637,118.976 144.194 C 119.261 143.751,119.628 142.761,119.791 141.994 C 119.953 141.227,120.405 140.240,120.794 139.800 C 121.183 139.360,121.718 138.323,121.983 137.496 C 122.267 136.608,122.879 135.775,123.475 135.462 L 124.486 134.933 123.143 134.395 C 115.058 131.159,113.615 121.469,120.588 117.243 C 123.306 115.596,127.959 115.423,129.836 116.900 C 132.086 118.670,135.260 117.830,144.400 113.047 C 145.390 112.529,146.729 111.980,147.376 111.826 C 148.022 111.672,149.012 111.221,149.576 110.823 C 150.139 110.425,151.230 109.965,152.000 109.802 C 152.770 109.638,153.850 109.279,154.400 109.005 C 161.610 105.406,176.333 105.407,180.400 109.007 C 180.730 109.299,181.478 109.657,182.062 109.803 C 182.646 109.948,183.533 110.502,184.032 111.034 C 184.531 111.565,185.156 112.000,185.421 112.000 C 185.685 112.000,186.123 112.266,186.393 112.592 C 186.967 113.283,187.335 113.134,191.049 110.713 L 193.498 109.116 192.478 107.558 C 191.917 106.701,191.316 106.000,191.143 106.000 C 189.220 106.000,188.922 96.171,190.766 93.592 C 191.163 93.038,191.621 92.138,191.784 91.592 C 192.069 90.637,192.477 89.933,195.029 86.000 C 198.701 80.339,199.373 79.759,200.929 80.900 M123.738 153.329 C 121.766 157.221,120.079 160.910,119.772 162.000 C 119.617 162.550,119.155 163.429,118.745 163.954 C 118.335 164.479,118.000 165.143,118.000 165.430 C 118.000 165.956,114.794 173.056,113.046 176.400 C 112.529 177.390,111.980 178.726,111.828 179.368 C 111.675 180.011,111.202 180.980,110.775 181.522 C 110.349 182.064,110.000 182.774,110.000 183.099 C 110.000 183.425,109.657 184.346,109.238 185.146 C 108.049 187.415,106.127 191.696,105.801 192.800 C 105.638 193.350,105.232 194.111,104.898 194.492 C 104.351 195.115,104.365 195.214,105.046 195.492 C 106.711 196.172,145.277 195.856,145.718 195.158 C 146.111 194.535,145.171 192.111,142.766 187.546 C 142.345 186.746,142.000 185.825,142.000 185.499 C 142.000 185.174,141.657 184.472,141.239 183.940 C 140.820 183.407,140.278 182.234,140.036 181.333 C 139.793 180.431,139.327 179.471,139.000 179.200 C 138.673 178.929,138.206 177.964,137.962 177.057 C 137.717 176.150,137.176 174.928,136.759 174.342 C 136.341 173.756,136.000 173.142,136.000 172.977 C 136.000 172.679,134.954 170.368,132.754 165.806 C 132.119 164.489,131.600 163.206,131.600 162.955 C 131.600 162.704,131.335 162.278,131.011 162.009 C 130.686 161.740,130.306 160.906,130.165 160.156 C 130.025 159.407,129.598 158.390,129.217 157.897 C 128.836 157.403,128.214 156.190,127.835 155.200 C 127.456 154.210,126.660 152.828,126.067 152.129 L 124.989 150.857 123.738 153.329 M273.742 152.019 C 272.889 152.566,272.403 153.259,272.232 154.172 C 272.093 154.913,271.723 155.732,271.411 155.991 C 271.099 156.250,270.539 157.393,270.166 158.531 C 269.793 159.669,269.153 161.078,268.744 161.662 C 268.335 162.246,268.000 162.935,268.000 163.194 C 268.000 163.452,267.100 165.525,266.000 167.800 C 264.900 170.075,264.000 172.196,264.000 172.514 C 264.000 172.832,263.657 173.528,263.239 174.060 C 262.820 174.593,262.278 175.766,262.036 176.667 C 261.793 177.569,261.343 178.515,261.036 178.770 C 260.730 179.024,260.360 179.705,260.215 180.282 C 260.070 180.859,259.089 183.147,258.034 185.367 C 256.980 187.586,255.979 189.851,255.811 190.401 C 255.643 190.950,255.281 191.670,255.006 192.000 C 254.221 192.944,253.909 194.809,254.432 195.438 C 255.048 196.181,292.758 196.283,293.940 195.545 C 294.841 194.982,294.465 193.669,291.838 188.200 C 290.887 186.220,289.970 184.150,289.799 183.600 C 289.629 183.050,289.155 182.171,288.745 181.646 C 288.335 181.121,288.000 180.291,288.000 179.800 C 288.000 179.309,287.640 178.450,287.200 177.891 C 286.760 177.331,286.400 176.743,286.400 176.584 C 286.400 176.263,281.637 165.696,280.638 163.800 C 280.290 163.140,280.004 162.320,280.002 161.978 C 280.001 161.635,279.550 160.745,279.000 160.000 C 278.450 159.255,278.000 158.254,278.000 157.776 C 278.000 157.299,277.674 156.479,277.275 155.954 C 276.876 155.429,276.231 154.145,275.842 153.100 C 275.452 152.055,275.104 151.203,275.067 151.207 C 275.030 151.210,274.434 151.576,273.742 152.019 " stroke="none" fill="#EE1C25"></path> </g></svg>